<?xml version="1.0" encoding="UTF-8" standalone="no"?>
<!-- Created with Inkscape (http://www.inkscape.org/) -->

<svg
   xmlns:dc="http://purl.org/dc/elements/1.1/"
   xmlns:cc="http://creativecommons.org/ns#"
   xmlns:rdf="http://www.w3.org/1999/02/22-rdf-syntax-ns#"
   xmlns:svg="http://www.w3.org/2000/svg"
   xmlns="http://www.w3.org/2000/svg"
   xmlns:sodipodi="http://sodipodi.sourceforge.net/DTD/sodipodi-0.dtd"
   xmlns:inkscape="http://www.inkscape.org/namespaces/inkscape"
   width="245"
   height="30"
   viewBox="0 0 64.822927 7.9375"
   version="1.1"
   id="svg14157"
   inkscape:export-filename="C:\opt\git\swappingscout\client\img\logo.png"
   inkscape:export-xdpi="96"
   inkscape:export-ydpi="96"
   inkscape:version="0.92.1 r15371"
   sodipodi:docname="cappellone.svg">
  <defs
     id="defs14151" />
  <sodipodi:namedview
     id="base"
     pagecolor="#ffffff"
     bordercolor="#666666"
     borderopacity="1.0"
     inkscape:pageopacity="0.0"
     inkscape:pageshadow="2"
     inkscape:zoom="1.4"
     inkscape:cx="101.3027"
     inkscape:cy="-80.545406"
     inkscape:document-units="mm"
     inkscape:current-layer="layer2"
     showgrid="false"
     inkscape:window-width="1280"
     inkscape:window-height="1002"
     inkscape:window-x="-8"
     inkscape:window-y="-8"
     inkscape:window-maximized="1"
     units="px" />
  <metadata
     id="metadata14154">
    <rdf:RDF>
      <cc:Work
         rdf:about="">
        <dc:format>image/svg+xml</dc:format>
        <dc:type
           rdf:resource="http://purl.org/dc/dcmitype/StillImage" />
        <dc:title></dc:title>
      </cc:Work>
    </rdf:RDF>
  </metadata>
  <g
     inkscape:label="Livello 1"
     inkscape:groupmode="layer"
     id="layer1"
     transform="translate(0,-289.0625)">
    <g
       id="g4517"
       transform="matrix(0.18970296,0,0,0.18970296,-1.8367919,277.27544)"
       inkscape:export-xdpi="115"
       inkscape:export-ydpi="115">
      <path
         d="m 78.039444,73.958221 c 5.05389,7.977629 -3.714918,20.550535 -17.141532,26.751439 -13.426615,6.20088 -27.520784,4.27774 -31.48002,-4.295693 -1.941092,-4.203102 -1.116465,-10.105359 3.42646,-17.553112 2.0167,-3.306245 4.079958,-8.190454 7.838011,-11.054089 1.050049,-0.463456 2.575668,0.915772 4.145892,0.637984 4.626293,-0.818808 1.543069,-3.433247 3.732353,-3.466701 2.820963,-0.04318 5.781062,0.187621 8.193845,1.134408 2.865567,1.12468 15.124334,-1.879042 21.284991,7.845764"
         style="fill:#afafd8;fill-opacity:1;fill-rule:nonzero;stroke:none;stroke-width:0.48478541"
         id="path9361"
         inkscape:connector-curvature="0" />
      <path
         d="m 73.907965,70.068727 c -2.271214,-4.919595 -7.979084,-7.740569 -15.658085,-7.740569 -1.71857,0 -3.478817,0.146891 -5.25895,0.428537 0.501747,0.181812 0.992349,0.392683 1.470829,0.628296 1.279843,-0.152223 2.545614,-0.230273 3.788121,-0.230273 7.343533,0 12.776524,2.646448 14.907154,7.26064 1.784491,3.864694 1.008346,8.647103 -2.184927,13.466855 -3.234005,4.880819 -8.545801,9.198805 -14.95612,12.158419 -5.225995,2.412765 -10.659945,3.687755 -15.715294,3.687755 -7.343039,0 -12.776524,-2.645949 -14.907149,-7.26015 -1.784502,-3.864713 -1.008356,-8.647112 2.184919,-13.466855 1.111133,-1.676862 2.47193,-3.284412 4.033909,-4.795982 0.0042,-0.01548 0.0069,-0.03145 0.0096,-0.04703 0.124091,-0.525521 0.291358,-1.038409 0.48479,-1.539684 -2.060345,1.832981 -3.827381,3.826896 -5.21775,5.926024 -3.358111,5.067456 -4.155584,10.135397 -2.246992,14.270129 2.271232,4.919127 7.979089,7.740571 15.658092,7.740571 5.174119,0 10.727817,-1.30164 16.061425,-3.763867 6.548494,-3.023602 11.981483,-7.445817 15.298857,-12.452691 3.358122,-5.067454 4.155597,-10.135407 2.246988,-14.270146"
         style="fill:#000101;fill-opacity:1;fill-rule:nonzero;stroke:none;stroke-width:0.48478541"
         id="path9365"
         inkscape:connector-curvature="0" />
      <path
         d="m 31.612179,74.205446 c -0.144964,0.573017 -0.209427,1.172208 -0.272942,1.750565 -0.04466,0.579317 -0.08822,1.1596 -0.11873,1.745233 -0.122167,2.267331 -0.04026,4.655879 0.765961,6.903834 0.759176,2.255699 2.372536,4.226344 4.398938,5.432982 0,0 0.126562,0.07425 0.351959,0.206037 0.228816,0.123679 0.558472,0.303959 0.97539,0.482352 0.828983,0.369889 2.003135,0.749966 3.266488,0.954548 1.263353,0.204096 2.602329,0.248202 3.734293,0.184702 1.133437,-0.06101 2.058408,-0.221066 2.536406,-0.301537 0.477025,-0.08288 1.676381,-0.307827 3.140928,-0.80959 0.734441,-0.242391 1.528038,-0.568663 2.334717,-0.944364 0.405291,-0.186644 0.80378,-0.398971 1.203245,-0.614706 0.400427,-0.2138 0.806202,-0.422247 1.19015,-0.663184 0.385407,-0.238028 0.780019,-0.452307 1.142629,-0.701484 0.364079,-0.246271 0.719432,-0.486728 1.062169,-0.718456 0.656399,-0.504176 1.271104,-0.956492 1.746686,-1.40248 0.499327,-0.417397 0.868244,-0.810067 1.129549,-1.078161 0.13096,-0.134258 0.233666,-0.239004 0.303476,-0.310267 0.07132,-0.0704 0.104713,-0.111045 0.104713,-0.111045 l 0.57884,-0.689843 c 0.09495,-0.116385 0.193912,-0.229307 0.284567,-0.348077 l 0.255957,-0.371345 c 0.168709,-0.2487 0.349526,-0.489628 0.513881,-0.742203 0.151242,-0.261297 0.306377,-0.521137 0.467337,-0.780501 0.657841,-1.149923 1.121301,-2.4409 1.255105,-3.779878 0.114884,-1.338003 -0.04123,-2.684744 -0.428075,-3.945184 -0.0863,-0.266132 -0.261288,-0.762563 -0.456659,-1.074765 -0.116394,-0.186156 -0.240457,-0.307357 -0.357289,-0.275347 0,0 0.05195,0.460527 0.232693,0.940468 0.127523,0.338378 -0.02089,0.271481 -0.02089,0.271481 0,0 0.0082,0.02675 0.02515,0.07425 0.01744,0.04666 0.04026,0.11447 0.0558,0.199242 0.0096,0.04027 0.02089,0.09265 0.03148,0.13913 0.0014,0.0056 0.0027,0.01098 0.0042,0.0169 0.106225,-0.432911 0.143988,-0.684522 0.143988,-0.684522 0.0518,0.189057 0.09839,0.378141 0.140594,0.567208 0.0863,0.386364 0.152701,0.773226 0.198764,1.159599 0.06788,0.567191 0.09166,1.133431 0.07269,1.696762 -0.02281,0.687902 -0.11296,1.371438 -0.264697,2.046744 -0.197789,0.879896 -0.504179,1.746208 -0.921577,2.59023 -0.09798,0.198263 -0.203135,0.395084 -0.313179,0.590937 -0.243357,0.432912 -0.516286,0.859039 -0.818802,1.27741 -0.112407,0.155613 -0.229779,0.309779 -0.350501,0.463458 -0.357772,0.454241 -0.751409,0.898802 -1.181423,1.332193 -0.03532,0.03539 -0.07077,0.07077 -0.106637,0.10622 -0.09015,0.08917 -0.180337,0.179378 -0.273907,0.26809 -0.262263,0.248214 -0.538587,0.491562 -0.825091,0.731542 -0.106638,0.08917 -0.21476,0.178402 -0.324806,0.26614 -0.353897,0.283129 -0.72379,0.560899 -1.113071,0.830926 -0.102791,0.07134 -0.208465,0.141071 -0.313659,0.211378 -0.01457,0.0096 -0.02858,0.01943 -0.04315,0.02919 -0.30929,0.206037 -0.627305,0.408179 -0.957936,0.605485 -0.120655,0.07172 -0.244813,0.142538 -0.368438,0.213801 -0.300562,0.172096 -0.606953,0.342257 -0.923992,0.507085 -0.126976,0.06637 -0.258392,0.130411 -0.388322,0.195356 -0.349526,0.175017 -0.707298,0.346154 -1.076711,0.51194 -0.04314,0.01943 -0.08382,0.0398 -0.126973,0.05876 -0.08094,0.03585 -0.164338,0.06833 -0.24627,0.103196 -0.264698,0.113372 -0.533257,0.221055 -0.805718,0.323831 -0.115844,0.04402 -0.231717,0.08823 -0.349046,0.130408 -0.37231,0.133301 -0.750447,0.256461 -1.132942,0.369889 -0.117355,0.03492 -0.235111,0.0689 -0.353401,0.101829 -0.317534,0.0888 -0.637007,0.172103 -0.958913,0.246775 -0.120653,0.02816 -0.241418,0.05388 -0.362129,0.07997 -0.783894,0.168696 -1.577012,0.29764 -2.37109,0.382496 -0.107599,0.01098 -0.21476,0.02037 -0.322372,0.03004 -0.300579,0.02759 -0.60066,0.0489 -0.900743,0.06401 -0.11447,0.0056 -0.229298,0.014 -0.343714,0.01793 -0.735414,0.02478 -1.46356,0.0075 -2.179103,-0.04562 -0.119692,-0.0096 -0.23948,-0.01747 -0.358252,-0.02919 -0.380076,-0.03585 -0.754817,-0.08579 -1.124708,-0.145429 -0.120244,-0.01943 -0.241902,-0.03585 -0.360687,-0.05773 -0.199244,-0.03642 -0.394614,-0.07903 -0.589984,-0.122592 -0.122165,-0.02722 -0.242874,-0.05679 -0.363583,-0.08682 -0.382975,-0.0955 -0.757236,-0.204584 -1.121797,-0.328686 -0.120654,-0.04158 -0.239481,-0.08579 -0.358254,-0.129864 -0.336923,-0.126015 -0.664643,-0.264683 -0.981682,-0.416916 -0.03243,-0.01548 -0.06637,-0.02956 -0.09894,-0.04562 -0.09606,-0.04693 -0.1881,-0.09839 -0.281669,-0.148347 -0.265618,-0.140573 -0.523046,-0.291839 -0.771254,-0.452774 -0.126975,-0.08242 -0.253057,-0.166276 -0.375223,-0.254041 -0.40143,-0.288445 -0.774716,-0.605984 -1.117453,-0.952606 -0.119281,-0.120656 -0.238039,-0.241896 -0.349541,-0.369892 -0.363104,-0.415942 -0.679664,-0.874057 -0.952593,-1.368048 -0.131372,-0.23756 -0.25112,-0.483837 -0.359723,-0.739305 -0.322866,-0.761117 -0.548289,-1.599307 -0.646214,-2.528164 0,0 0.05868,0.06833 0.167252,0.183743 -0.0027,-0.0096 -0.0054,-0.0184 -0.0069,-0.02759 -0.02914,-0.05773 -0.06004,-0.114469 -0.08685,-0.173559 0,0 -0.03298,-0.04844 -0.06597,-0.127526 -0.03297,-0.07951 -0.0698,-0.186167 -0.0867,-0.294264 -0.03491,-0.215245 -0.094,-0.302993 -0.131373,-0.406732 -0.04411,-0.105685 -0.07366,-0.342258 0.03875,-0.311713 0.01402,0.0047 0.04466,0.03839 0.08094,0.08288 -0.03394,-0.21622 -0.06885,-0.423225 -0.08918,-0.613266 -0.03834,-0.475566 -0.07751,-0.856122 -0.08685,-1.118394 -0.04604,-1.194509 0.0082,-2.39678 0.08053,-3.601473 0.03009,-0.61035 0.09359,-1.193064 0.178412,-1.773337 l 0.187606,-0.861951 0.261783,-0.844508 c 0.789722,-2.239206 2.290123,-4.17205 3.979119,-5.874125 0.423706,-0.431457 0.860975,-0.840135 1.290989,-1.295349 0.424666,-0.446487 0.84256,-0.861471 1.264808,-1.293408 0.421273,-0.428069 0.86922,-0.855651 1.303095,-1.282733 0.367473,-0.409165 0.910431,-0.636051 1.463571,-0.756284 0.14058,-0.02826 0.269536,-0.04355 0.411587,-0.04796 l 0.45472,8.98e-4 0.90995,0.0047 1.819395,0.01455 1.812616,0.014 c 0.598228,0.0137 1.194507,0.04891 1.784008,0.127931 2.275585,0.284576 4.517227,0.975876 6.43504,2.260064 0.952125,0.623921 1.80583,1.447575 2.677963,2.235828 0.432912,0.39898 0.861455,0.804747 1.240075,1.20857 0.408189,0.458614 0.792619,0.886194 1.16155,1.340921 0,0 0.478,0.537143 0.919157,1.116949 0.230756,0.286029 0.423212,0.589489 0.585133,0.824617 0.134808,0.236582 0.225423,0.40771 0.271473,0.443098 0.16823,0.151734 0.03738,-0.392193 -0.08726,-0.637496 -0.125601,-0.236573 -0.263723,-0.462002 -0.482357,-0.911388 -0.0027,-0.0056 -0.0054,-0.0096 -0.0082,-0.01503 C 61.809499,70.189718 61.4556,69.742265 61.4556,69.742265 61.129818,69.290438 60.780292,68.849763 60.428816,68.424124 60.277571,68.221482 60.083164,68.006236 59.884895,67.789545 59.688067,67.568001 59.491243,67.366799 59.294417,67.17241 58.900285,66.776329 58.500338,66.385122 58.093603,66.00408 57.681537,65.626913 57.296132,65.225992 56.823463,64.874029 56.0929,64.287926 55.296882,63.796854 54.461593,63.385258 53.982631,63.149174 53.492029,62.938772 52.990268,62.756979 52.196161,62.469026 51.37882,62.246018 50.554193,62.086051 49.385343,61.850428 48.18453,61.766088 47.006007,61.776262 l -3.471065,-0.01098 -0.867268,-8.99e-4 -0.221069,0.0019 -0.275841,0.02516 c -0.171623,0.02759 -0.341296,0.06054 -0.50176,0.107599 -0.323347,0.09551 -0.63507,0.20845 -0.940966,0.389762 -0.302021,0.159001 -0.636527,0.498348 -0.79893,0.65979 -0.407697,0.402857 -0.800868,0.775646 -1.219227,1.204683 l -1.228928,1.257549 c -0.362623,0.386365 -0.796511,0.795043 -1.206159,1.207596 -0.41109,0.417885 -0.822195,0.841101 -1.210501,1.289531 -0.781477,0.890548 -1.500896,1.851377 -2.097186,2.895624 -0.331113,0.579803 -0.618101,1.188211 -0.860494,1.816 -0.193432,0.501755 -0.360191,1.014173 -0.484294,1.540172 -0.0042,0.01548 -0.0069,0.03145 -0.01099,0.04693"
         style="fill:#1d1d1b;fill-opacity:1;fill-rule:nonzero;stroke:none;stroke-width:0.48478541"
         id="path9369"
         inkscape:connector-curvature="0" />
      <path
         d="m 48.079653,76.815642 c 0.02625,-0.141071 -0.01402,-0.25452 -0.01402,-0.25452 -0.07132,-0.496423 -0.278754,-0.878919 -0.486231,-1.284187 -0.210403,-0.400924 -0.456191,-0.782445 -0.643314,-1.195487 -0.202162,-0.432434 -0.42952,-0.854682 -0.66852,-1.268681 -0.229298,-0.417398 -0.551686,-0.802335 -0.832858,-1.196941 -0.289902,-0.406255 -0.587083,-0.749476 -0.889105,-1.119857 -0.302502,-0.369401 -0.608893,-0.743668 -0.930303,-1.117915 -0.313647,-0.364069 -0.680639,-0.698572 -1.105787,-0.979263 -0.423226,-0.27682 -0.914803,-0.512903 -1.472298,-0.576903 0,0 -0.0349,-0.0028 -0.09647,-0.0075 -0.06252,-0.0028 -0.148827,-0.01895 -0.258392,-0.0075 -0.22009,0 -0.506595,0.06411 -0.778083,0.16725 -0.549265,0.210403 -0.996716,0.606952 -1.156205,0.732516 -0.168711,0.121624 -0.759175,0.690326 -1.191607,1.303095 -0.221547,0.306389 -0.411584,0.618111 -0.542958,0.846433 -0.131372,0.228838 -0.216696,0.377665 -0.216696,0.377665 -0.131922,0.204093 -0.22688,0.425636 -0.400922,0.601618 -0.38395,0.37813 -0.633613,0.803281 -0.930783,1.236682 -0.05331,0.07021 -0.205072,0.21137 -0.05621,0.469756 0,0 0.126976,0.0056 0.208467,-0.08626 0.0558,-0.06402 0.104163,0.03689 0.104163,0.03689 0,0 0.07901,-0.07425 0.163378,-0.153189 0.06829,-0.08823 0.136184,-0.184712 0.138162,-0.218644 0.0042,-0.101828 0.24627,-0.13576 0.3379,-0.230752 0.78971,-0.895405 1.259959,-1.927513 2.004099,-2.642084 0,0 0.272943,-0.355828 0.648167,-0.715545 0.369892,-0.371344 0.860494,-0.681612 1.142148,-0.776625 0.139618,-0.05041 0.340801,-0.119689 0.569618,-0.123678 0.232212,-8.99e-4 0.511449,0.06026 0.781476,0.173062 0.542479,0.233193 1.015629,0.626353 1.16106,0.773733 0.672886,0.678685 1.311353,1.428659 1.940115,2.196075 0.293774,0.388307 0.584651,0.78098 0.861468,1.18288 0.246751,0.426124 0.478482,0.861947 0.685489,1.30988 0.402365,0.877464 1.113553,1.568296 1.484887,2.496167 0,0 0.283126,0.538597 0.373782,0.527924 0.09015,-0.01098 0.09688,-0.169185 0.08479,-0.229298 -0.01237,-0.05998 -0.04466,-0.105674 -0.01843,-0.246757"
         style="fill:#1d1d1b;fill-opacity:1;fill-rule:nonzero;stroke:none;stroke-width:0.48478541"
         id="path9985"
         inkscape:connector-curvature="0" />
      <path
         d="m 55.498329,67.727215 c 0.02089,-0.126983 -0.02323,-0.2201 -0.02323,-0.2201 -0.116391,-0.405278 -0.384922,-0.731052 -0.713603,-0.953084 -0.324324,-0.233173 -0.68645,-0.389762 -1.020959,-0.577869 C 53.38858,65.771109 53.027908,65.635846 52.706002,65.489941 52.363264,65.341098 52.000161,65.196149 51.624938,65.070593 51.247775,64.945946 50.858,64.83692 50.438663,64.765667 c -0.418374,-0.05867 -0.87359,-0.127527 -1.40976,0.05726 -0.127523,0.05716 -0.25887,0.105261 -0.370372,0.206037 -0.05716,0.04562 -0.113921,0.09359 -0.166772,0.142528 l -0.122716,0.155132 c -0.158032,0.211849 -0.24627,0.444553 -0.303959,0.667065 -0.105675,0.448427 -0.08726,0.866321 -0.04947,1.262872 0,0 0.04219,0.396068 0.131924,0.811044 0.0867,0.41643 0.208945,0.856607 0.240937,1.011263 0.01895,0.151256 0.213315,0.778565 0.415461,1.34721 0.119279,0.274879 0.234642,0.54054 0.319965,0.737361 0.08479,0.197298 0.144951,0.318508 0.144951,0.318508 0.07036,0.183246 0.182769,0.347588 0.220573,0.551202 0.08479,0.435325 0.358747,0.855641 0.810074,1.070399 0.0819,0.02854 0.267116,0.113926 0.37183,-0.163374 -0.0027,-8.98e-4 -0.0096,-0.105676 -0.06734,-0.112405 -0.04466,-0.0075 0.03009,-0.08917 0.03009,-0.08917 0.0042,0.02319 -0.177903,-0.13192 -0.234631,-0.128486 -0.08286,-0.0028 -0.04163,-0.187132 -0.07173,-0.265182 -0.193433,-0.349521 -0.345655,-0.748013 -0.495455,-1.167343 -0.140099,-0.42226 -0.288443,-0.828505 -0.367458,-1.246399 0,0 -0.107601,-0.339827 -0.236584,-0.746558 -0.111033,-0.440685 -0.219609,-0.93709 -0.266138,-1.218755 -0.04947,-0.279722 -0.153689,-0.80669 -0.142534,-1.284208 0.0069,-0.235595 0.03738,-0.460051 0.09647,-0.623904 0.05676,-0.164839 0.135222,-0.269058 0.177435,-0.320939 0.194876,-0.183725 0.516286,-0.256444 0.878908,-0.242391 0.361167,0.01503 0.740761,0.0951 1.113552,0.201184 0.373768,0.107599 0.742698,0.246287 1.107258,0.404798 0.362128,0.163865 0.748511,0.327238 1.083978,0.513875 0.330617,0.18471 0.678207,0.299593 1.013195,0.456182 0.323363,0.166771 0.637008,0.382496 0.808137,0.722332 0.0096,-0.0075 0.246764,0.371824 0.334025,0.342735 0.08575,-0.02516 0.09647,-0.154157 0.08479,-0.202639 -0.01098,-0.04797 -0.04067,-0.07866 -0.01895,-0.205541"
         style="fill:#1d1d1b;fill-opacity:1;fill-rule:nonzero;stroke:none;stroke-width:0.48478541"
         id="path9989"
         inkscape:connector-curvature="0" />
      <path
         d="m 32.696407,80.694446 c 0.09688,0.09068 0.206032,0.189076 0.322867,0.291841 0.260326,0.228827 0.569135,0.484304 0.925451,0.753833 0.117769,0.08917 0.240458,0.178901 0.368436,0.270513 0.334012,0.238994 0.70051,0.483828 1.102887,0.727665 0.110073,0.06636 0.223005,0.132341 0.337901,0.198284 0.256933,0.147368 0.527444,0.292815 0.809099,0.434846 0.09606,0.04843 0.191013,0.09743 0.289899,0.144948 0.03202,0.01548 0.065,0.03051 0.09743,0.04571 0.347107,0.164332 0.71021,0.322863 1.091249,0.470732 0.116806,0.04562 0.238036,0.08776 0.35777,0.130953 0.326756,0.118318 0.663186,0.229794 1.012232,0.331114 0.127937,0.03689 0.257909,0.07171 0.388802,0.106219 0.220585,0.05773 0.445513,0.111458 0.674344,0.161433 0.113371,0.02413 0.226385,0.04843 0.341282,0.07077 0.334988,0.06543 0.679676,0.119276 1.031622,0.164333 0.12464,0.01596 0.247726,0.03342 0.374263,0.04656 0.289899,0.03004 0.586094,0.05088 0.886671,0.06589 0.118317,0.0056 0.238504,0.0075 0.358733,0.01098 0.276338,0.0075 0.55751,0.0075 0.84256,0.0019 0.109112,-0.0028 0.216216,-0.0028 0.326262,-0.0075 0.305413,-0.0137 0.617138,-0.0368 0.932735,-0.0674 0.122164,-0.01228 0.24675,-0.02854 0.370373,-0.04374 0.381518,-0.04571 0.768382,-0.101825 1.163476,-0.175493 0.121753,-0.02281 0.245306,-0.04796 0.368435,-0.07368 0.330151,-0.06787 0.665137,-0.147369 1.004001,-0.23658 0.04699,-0.01231 0.09399,-0.02629 0.141556,-0.03877 0.375224,-0.101826 0.755779,-0.216211 1.141666,-0.344678 0.119281,-0.04027 0.236087,-0.07425 0.356314,-0.116394 0.321907,-0.113918 0.647674,-0.237549 0.976366,-0.371347 0.0096,-0.0047 0.01843,-0.0075 0.02762,-0.0096 0.120242,-0.04947 0.236089,-0.100857 0.354378,-0.151237 0.339344,-0.144948 0.672394,-0.293784 0.991868,-0.449405 0.120653,-0.05867 0.23658,-0.119689 0.354376,-0.179857 0.313179,-0.159489 0.619555,-0.322865 0.913828,-0.492059 0.129446,-0.07425 0.255475,-0.15028 0.381034,-0.226386 0.334014,-0.201185 0.654462,-0.408199 0.96375,-0.619567 0.120245,-0.08241 0.24046,-0.164822 0.357292,-0.248682 0.326261,-0.23415 0.639426,-0.472665 0.938067,-0.716022 0.137666,-0.112004 0.271472,-0.225442 0.40382,-0.338888 0.344195,-0.296675 0.669494,-0.598203 0.976353,-0.903137 0.129862,-0.128898 0.256947,-0.257909 0.380073,-0.38783 0.338383,-0.355349 0.652043,-0.71408 0.944857,-1.072352 0.06596,-0.08091 0.13041,-0.161927 0.193912,-0.242879 0.06116,-0.07716 0.122578,-0.154146 0.181312,-0.23123 0.41061,-0.538129 0.772737,-1.072839 1.09221,-1.594475 0.111448,-0.182757 0.217191,-0.363094 0.318992,-0.541986 0.302501,-0.533265 0.559929,-1.047137 0.779045,-1.530947 0.1289,-0.285053 0.245307,-0.559931 0.349047,-0.821717 0.133295,-0.337892 0.247724,-0.654457 0.343232,-0.943866 -0.0027,-0.01098 -0.0082,-0.02037 -0.01237,-0.03004 -0.02514,-0.0519 -0.06445,-0.09605 -0.126978,-0.124081 0,0 -0.142531,0.142516 -0.196823,0.347588 -0.03834,0.143971 -0.125054,0.06449 -0.125054,0.06449 0,0 -0.244814,0.701484 -0.239,0.805227 0.0069,0.156586 -0.254995,0.411584 -0.365521,0.623921 -0.88813,1.954658 -2.019132,3.800706 -3.54475,5.266227 0,0 -0.598229,0.670939 -1.428189,1.353021 -0.808135,0.712147 -1.888238,1.362257 -2.502944,1.716633 -0.304936,0.183726 -0.771777,0.395592 -1.286617,0.666584 -0.259848,0.13192 -0.551204,0.236084 -0.840128,0.362615 -0.29427,0.113917 -0.580776,0.264695 -0.889105,0.351954 -0.608892,0.196821 -1.199357,0.388317 -1.68802,0.546351 -0.245789,0.07716 -0.465398,0.146404 -0.649128,0.204093 -0.188581,0.03736 -0.339838,0.0674 -0.443096,0.08823 -0.947754,0.155613 -1.882907,0.39607 -2.842784,0.443576 l -0.716505,0.07031 c -0.239,0.02037 -0.478,0.05904 -0.717495,0.04505 l -1.438836,-0.01455 C 40.374216,84.61566 38.45834,84.166227 36.7965,83.222839 36.597255,83.106998 36.395579,82.997418 36.191482,82.892212 35.987387,82.785983 35.801238,82.649822 35.602475,82.534441 l -0.592896,-0.356319 -0.561868,-0.404293 c -0.386369,-0.256949 -0.717,-0.584177 -1.058281,-0.8959 -0.314141,-0.339346 -0.621989,-0.687903 -0.857594,-1.085914 -0.01689,0.0096 -0.436307,-0.649135 -0.622951,-0.879887 -0.03642,-0.04506 -0.06693,-0.07894 -0.08094,-0.08289 -0.112548,-0.03107 -0.08286,0.205542 -0.03875,0.311236 0.03738,0.103749 0.09647,0.191487 0.131373,0.406742 0.01689,0.108558 0.05387,0.214757 0.0867,0.294254 0.03298,0.0796 0.06597,0.127517 0.06597,0.127517 0.02666,0.05904 0.05772,0.115851 0.08671,0.17356 0.0069,0.01455 0.01402,0.02919 0.02129,0.04308 0.116393,0.122571 0.289913,0.298629 0.515337,0.509011"
         style="fill:#1d1d1b;fill-opacity:1;fill-rule:nonzero;stroke:none;stroke-width:0.48478541"
         id="path9373"
         inkscape:connector-curvature="0" />
    </g>
  </g>
  <g
     inkscape:groupmode="layer"
     id="layer2"
     inkscape:label="Livello 2"
     transform="translate(0,-289.0625)">
    <text
       xml:space="preserve"
       style="font-style:normal;font-variant:normal;font-weight:normal;font-stretch:normal;font-size:5.92356205px;line-height:1.25;font-family:Raleway;-inkscape-font-specification:Raleway;letter-spacing:0px;word-spacing:0px;fill:#000000;fill-opacity:1;stroke:none;stroke-width:0.14808907"
       x="14.200367"
       y="294.82645"
       id="text4490"
       inkscape:export-xdpi="115"
       inkscape:export-ydpi="115"><tspan
         sodipodi:role="line"
         id="tspan4488"
         x="14.200367"
         y="294.82645"
         style="font-style:normal;font-variant:normal;font-weight:normal;font-stretch:normal;font-family:Comfortaa;-inkscape-font-specification:Comfortaa;stroke-width:0.14808907">SwappingScout</tspan></text>
  </g>
</svg>
